<?xml version="1.0" encoding="UTF-8" standalone="no"?>
<svg width="470px" height="468px" viewBox="0 0 470 468" version="1.1" xmlns="http://www.w3.org/2000/svg" xmlns:xlink="http://www.w3.org/1999/xlink" xmlns:sketch="http://www.bohemiancoding.com/sketch/ns">
    <!-- Generator: Sketch 3.2.2 (9983) - http://www.bohemiancoding.com/sketch -->
    <title>dice-random-refresh</title>
    <desc>Created with Sketch.</desc>
    <defs></defs>
    <g id="Page-1" stroke="none" stroke-width="1" fill="none" fill-rule="evenodd" sketch:type="MSPage">
        <g id="dice-random-refresh" sketch:type="MSLayerGroup" transform="translate(-2.000000, -1.000000)">
            <g id="Group" sketch:type="MSShapeGroup">
                <path d="M343.953261,446.265217 L104.882609,446.265217 C48.3282609,446.265217 2.05652174,399.993478 2.05652174,343.43913 L2.05652174,104.368478 C2.05652174,47.8141304 48.3282609,1.5423913 104.882609,1.5423913 L343.953261,1.5423913 C400.507609,1.5423913 446.779348,47.8141304 446.779348,104.368478 L446.779348,343.43913 C446.779348,399.993478 400.507609,446.265217 343.953261,446.265217 L343.953261,446.265217 Z" id="Shape" fill="#F3901D"></path>
                <g transform="translate(56.554348, 66.836957)" id="Oval" fill="#FFFFFF">
                    <circle cx="57.0684783" cy="57.0684783" r="56.0402174"></circle>
                    <circle cx="278.658696" cy="57.0684783" r="56.0402174"></circle>
                    <circle cx="278.658696" cy="257.065217" r="56.0402174"></circle>
                    <circle cx="57.0684783" cy="257.065217" r="56.0402174"></circle>
                </g>
            </g>
            <g id="Group" transform="translate(242.641304, 239.500000)" sketch:type="MSShapeGroup">
                <path d="M229.330435,114.73587 C229.330435,123.476087 228.302174,132.216304 226.245652,140.442391 C216.477174,183.115217 183.058696,216.533696 140.38587,226.302174 C132.159783,228.358696 123.419565,229.386957 114.679348,229.386957 C51.4413043,229.386957 0.0282608696,177.973913 0.0282608696,114.73587 C0.0282608696,51.4978261 51.4413043,0.0847826087 114.679348,0.0847826087 C177.917391,0.0847826087 229.330435,51.4978261 229.330435,114.73587 L229.330435,114.73587 Z" id="Shape" fill="#4CAF50"></path>
                <path d="M124.914123,228.914123 C130.184512,228.424198 135.380372,227.553548 140.38587,226.302174 C183.058696,216.533696 216.477174,183.115217 226.245652,140.442391 C228.302174,132.216304 229.330435,123.476087 229.330435,114.73587 C229.330435,106.537991 228.466423,98.5388343 226.824646,90.8246455 L184.517574,48.5175735 C178.056129,59.0818864 183.500432,78.6025355 157.606094,68.6235374 C131.711755,58.6445393 88.0851868,62.8333049 88.0851868,62.8333049 L49.7134909,113.755702 C49.7134909,113.755702 49.2535007,153.253501 63.8043342,167.804334 L124.914123,228.914123 L124.914123,228.914123 Z" id="Shape-2" fill="#52A052"></path>
                <path d="M163.531612,68.3270833 C150.827654,55.5791667 133.288279,47.6666667 113.858696,47.6666667 C74.999529,47.6666667 43.613279,79.1408333 43.613279,118 C43.613279,156.859167 74.999529,188.333333 113.858696,188.333333 C146.607654,188.333333 174.037654,165.914583 181.818279,135.583333 L163.531612,135.583333 C156.278487,156.067917 136.848904,170.75 113.858696,170.75 C84.7143207,170.75 61.1086957,147.144375 61.1086957,118 C61.1086957,88.855625 84.7143207,65.25 113.858696,65.25 C128.408904,65.25 141.464529,71.31625 151.003487,80.8552083 L122.650362,109.208333 L184.192029,109.208333 L184.192029,47.6666667 L163.531612,68.3270833 L163.531612,68.3270833 Z" id="Shape" fill="#F2F2F2"></path>
            </g>
        </g>
    </g>
</svg>