<?xml version="1.0" encoding="UTF-8" standalone="no"?>
<svg width="132px" height="40px" viewBox="0 0 132 40" version="1.1" xmlns="http://www.w3.org/2000/svg" xmlns:xlink="http://www.w3.org/1999/xlink" xmlns:sketch="http://www.bohemiancoding.com/sketch/ns">
    <!-- Generator: Sketch 3.2.2 (9983) - http://www.bohemiancoding.com/sketch -->
    <title>logo</title>
    <desc>Created with Sketch.</desc>
    <defs></defs>
    <g id="Page-1" stroke="none" stroke-width="1" fill="none" fill-rule="evenodd" sketch:type="MSPage">
        <g id="logo" sketch:type="MSLayerGroup" fill="#FFFFFF">
            <g id="Group-3" transform="translate(0.000000, 11.884058)" sketch:type="MSShapeGroup">
                <path d="M19.0689673,14.1176812 L26.9061438,6.20782609 C28.2065882,4.89594203 28.1395817,2.70347826 26.7571765,1.30898551 C25.3733333,-0.0846376812 23.1980654,-0.151884058 21.8973333,1.15942029 L14.0636078,9.0657971 L6.22959477,1.15942029 C4.92915033,-0.151884058 2.75330719,-0.0846376812 1.3703268,1.30898551 C-0.0129411765,2.70347826 -0.0796601307,4.89594203 1.2210719,6.20782609 L9.05796078,14.1176812 L1.364,21.8834783 C0.0629803922,23.1953623 0.129411765,25.3878261 1.51296732,26.7817391 C2.89566013,28.175942 5.07179085,28.2434783 6.37281046,26.9315942 L14.0636078,19.1692754 L21.7544052,26.9315942 C23.0551373,28.2434783 25.231268,28.175942 26.6142484,26.7817391 C27.9972288,25.3878261 28.0636601,23.1953623 26.7629281,21.8834783 L19.0689673,14.1176812" id="Fill-1"></path>
            </g>
            <path d="M20.5836601,6.7226087 C20.5836601,10.3492754 17.6670065,13.2895652 14.0684967,13.2895652 C10.4696993,13.2895652 7.55304575,10.3492754 7.55304575,6.7226087 C7.55304575,3.09507246 10.4696993,0.154782609 14.0684967,0.154782609 C17.6670065,0.154782609 20.5836601,3.09507246 20.5836601,6.7226087" id="Fill-4" sketch:type="MSShapeGroup"></path>
            <path d="M53.761098,26.0017391 L61.5979869,18.0918841 C62.8984314,16.78 62.8317124,14.5875362 61.4490196,13.1930435 C60.0651765,11.7994203 57.8899085,11.7321739 56.5891765,13.0434783 L48.755451,20.9498551 L40.9217255,13.0434783 C39.621281,11.7321739 37.4451503,11.7994203 36.0621699,13.1930435 C34.678902,14.5875362 34.6124706,16.78 35.9134902,18.0918841 L43.7503791,26.0017391 L36.0561307,33.7675362 C34.7548235,35.0794203 34.8212549,37.2718841 36.2048105,38.6657971 C37.5877908,40.06 39.763634,40.1275362 41.0649412,38.8156522 L48.755451,31.0533333 L56.4465359,38.8156522 C57.7469804,40.1275362 59.9236863,40.06 61.3058039,38.6657971 C62.6890719,37.2718841 62.7555033,35.0794203 61.4547712,33.7675362 L53.761098,26.0017391" id="Fill-5" sketch:type="MSShapeGroup"></path>
            <path d="M55.2760784,6.7226087 C55.2760784,10.3492754 52.3591373,13.2895652 48.7603399,13.2895652 C45.1615425,13.2895652 42.2448889,10.3492754 42.2448889,6.7226087 C42.2448889,3.09507246 45.1615425,0.154782609 48.7603399,0.154782609 C52.3591373,0.154782609 55.2760784,3.09507246 55.2760784,6.7226087" id="Fill-6" sketch:type="MSShapeGroup"></path>
            <path d="M88.4526536,26.0017391 L96.2898301,18.0918841 C97.5905621,16.78 97.5235556,14.5875362 96.1411503,13.1930435 C94.7573072,11.7994203 92.5823268,11.7321739 91.2810196,13.0434783 L83.4472941,20.9498551 L75.6138562,13.0434783 C74.3131242,11.7321739 72.1369935,11.7994203 70.7540131,13.1930435 C69.3713203,14.5875362 69.3043137,16.78 70.6053333,18.0918841 L78.4425098,26.0017391 L70.7479739,33.7675362 C69.4472418,35.0794203 69.5133856,37.2718841 70.8969412,38.6657971 C72.279634,40.06 74.4557647,40.1275362 75.7567843,38.8156522 L83.4472941,31.0533333 L91.1383791,38.8156522 C92.4391111,40.1275362 94.6155294,40.06 95.9979346,38.6657971 C97.3817778,37.2718841 97.447634,35.0794203 96.1466144,33.7675362 L88.4526536,26.0017391" id="Fill-7" sketch:type="MSShapeGroup"></path>
            <g id="Group-11" transform="translate(76.784314, 0.000000)" sketch:type="MSShapeGroup">
                <path d="M13.1838954,6.7226087 C13.1838954,10.3492754 10.2666667,13.2895652 6.66786928,13.2895652 C3.0690719,13.2895652 0.152705882,10.3492754 0.152705882,6.7226087 C0.152705882,3.09507246 3.0690719,0.154782609 6.66786928,0.154782609 C10.2666667,0.154782609 13.1838954,3.09507246 13.1838954,6.7226087" id="Fill-8"></path>
                <path d="M46.3604706,26.0017391 L54.1973595,18.0918841 C55.4983791,16.78 55.4313725,14.5875362 54.0486797,13.1930435 C52.6651242,11.7994203 50.4898562,11.7321739 49.1888366,13.0434783 L41.3551111,20.9498551 L33.5213856,13.0434783 C32.2206536,11.7321739 30.045098,11.7994203 28.6615425,13.1930435 C27.2791373,14.5875362 27.2118431,16.78 28.5128627,18.0918841 L36.3500392,26.0017391 L28.6560784,33.7675362 C27.3544837,35.0794203 27.420915,37.2718841 28.804183,38.6657971 C30.1871634,40.06 32.3635817,40.1275362 33.6646013,38.8156522 L41.3551111,31.0533333 L49.0461961,38.8156522 C50.3466405,40.1275362 52.5230588,40.06 53.9057516,38.6657971 C55.2893072,37.2718841 55.3551634,35.0794203 54.0544314,33.7675362 L46.3604706,26.0017391" id="Fill-10"></path>
            </g>
            <path d="M124.660052,6.7226087 C124.660052,10.3492754 121.743111,13.2895652 118.144601,13.2895652 C114.545804,13.2895652 111.628863,10.3492754 111.628863,6.7226087 C111.628863,3.09507246 114.545804,0.154782609 118.144601,0.154782609 C121.743111,0.154782609 124.660052,3.09507246 124.660052,6.7226087" id="Fill-12" sketch:type="MSShapeGroup"></path>
        </g>
    </g>
</svg>